<svg width="16" height="22" viewBox="0 0 16 22" fill="none" xmlns="http://www.w3.org/2000/svg">
<path fill-rule="evenodd" clip-rule="evenodd" d="M7.83725 0.649994C5.00073 0.649994 2.70066 2.94963 2.69998 5.78599L2.69998 5.78726H3.44998L2.69998 5.78472L2.69998 5.78599C2.69108 8.61408 4.97538 10.914 7.8038 10.9236H7.8064H7.83725C10.6742 10.9236 12.9737 8.6242 12.9737 5.78726C12.9737 2.95052 10.6744 0.649994 7.83725 0.649994ZM4.19998 5.78726C4.19998 3.77875 5.82873 2.14999 7.83725 2.14999C9.84556 2.14999 11.4736 3.77855 11.4736 5.78726C11.4736 7.79578 9.84488 9.42363 7.83637 9.42363H7.80755C5.80792 9.41613 4.1932 7.78978 4.19998 5.7898V5.78726ZM1.75 17.7866C1.75 16.9893 2.30533 16.0845 3.44188 15.3385C4.55835 14.6057 6.12445 14.1119 7.84455 14.1119C9.55559 14.1119 11.1226 14.601 12.2421 15.3297C13.3822 16.0719 13.9391 16.9717 13.9391 17.766C13.9391 18.1512 13.8152 18.4377 13.5916 18.6788C13.3521 18.9372 12.9676 19.1737 12.411 19.3685C11.2884 19.7614 9.68255 19.9119 7.84455 19.9119C6.01519 19.9119 4.40853 19.7666 3.28249 19.3781C2.72404 19.1854 2.3382 18.9508 2.09786 18.694C1.87403 18.4549 1.75 18.1705 1.75 17.7866ZM7.84455 12.6119C5.85282 12.6119 3.99665 13.1801 2.6188 14.0845C1.26103 14.9757 0.25 16.2831 0.25 17.7866C0.25 18.5531 0.520062 19.2034 1.00274 19.7191C1.4689 20.2171 2.10198 20.5575 2.79319 20.796C4.16647 21.2699 5.98208 21.4119 7.84455 21.4119C9.71836 21.4119 11.5348 21.2644 12.9065 20.7843C13.597 20.5426 14.2278 20.1989 14.6916 19.6987C15.1714 19.1812 15.4391 18.5308 15.4391 17.766C15.4391 16.2596 14.4196 14.9574 13.0604 14.0726C11.6806 13.1744 9.82532 12.6119 7.84455 12.6119Z" fill="#A9A9A9"/>
</svg>
