<svg width="18" height="18" viewBox="0 0 18 18" fill="none" xmlns="http://www.w3.org/2000/svg">
<path d="M14.3251 11.1971C14.092 11.4349 13.985 11.7788 14.0381 12.116L14.838 16.7768C14.9055 17.1718 14.7472 17.5716 14.4331 17.7999C14.1253 18.0367 13.7159 18.0651 13.3802 17.8757L9.39466 15.6874C9.25608 15.6097 9.1022 15.568 8.94472 15.5633H8.70085C8.61626 15.5765 8.53347 15.605 8.45788 15.6485L4.4714 17.8472C4.27433 17.9514 4.05116 17.9884 3.83249 17.9514C3.29976 17.8453 2.9443 17.3111 3.03159 16.7474L3.83249 12.0867C3.88558 11.7466 3.77849 11.4008 3.54543 11.1593L0.29595 7.84369C0.0241851 7.56613 -0.0703026 7.14931 0.0538812 6.77323C0.174465 6.3981 0.482225 6.12433 0.853877 6.06275L5.32629 5.37975C5.66645 5.3428 5.96521 5.12492 6.11819 4.80284L8.08893 0.549437C8.13573 0.454706 8.19602 0.367554 8.26891 0.293665L8.3499 0.227353C8.39219 0.178093 8.44079 0.137359 8.49478 0.104204L8.59287 0.0663114L8.74585 0H9.1247C9.46305 0.0369449 9.76091 0.250089 9.91659 0.568383L11.9134 4.80284C12.0574 5.11261 12.3373 5.32764 12.6603 5.37975L17.1327 6.06275C17.5107 6.11959 17.8266 6.39431 17.9516 6.77323C18.0695 7.1531 17.9678 7.56992 17.6907 7.84369L14.3251 11.1971Z" fill="#181818"/>
</svg>
