<svg width="18" height="22" viewBox="0 0 18 22" fill="none" xmlns="http://www.w3.org/2000/svg">
<path fill-rule="evenodd" clip-rule="evenodd" d="M8.99608 0.764191C6.52139 0.764191 4.72157 1.89654 3.56012 3.39393C2.41698 4.86771 1.88513 6.69878 1.88513 8.18371C1.88513 8.60996 1.89808 8.9264 1.90791 9.16652L1.90799 9.16855C1.90998 9.21715 1.91184 9.26262 1.91343 9.30524C1.9231 9.5635 1.92114 9.68759 1.90128 9.81052C1.85611 10.0901 1.71309 10.4345 1.14168 11.6938C1.13598 11.7064 1.13063 11.7191 1.12564 11.7319C0.71253 12.7943 0.80463 13.7717 1.29552 14.6C1.76394 15.3904 2.55144 15.9724 3.40271 16.3971C5.10503 17.2463 7.35563 17.6118 8.99608 17.6118C10.6361 17.6118 12.8864 17.2463 14.5887 16.3971C15.44 15.9724 16.2275 15.3905 16.6961 14.6001C17.187 13.7719 17.2794 12.7945 16.8666 11.7321C16.8616 11.7192 16.8562 11.7064 16.8505 11.6938C16.2791 10.4345 16.1361 10.0901 16.0909 9.81052C16.071 9.68759 16.0691 9.56351 16.0787 9.30524C16.0803 9.26203 16.0822 9.21589 16.0843 9.16652C16.0941 8.92639 16.107 8.60995 16.107 8.18371C16.107 6.6987 15.5749 4.86764 14.4317 3.39389C13.2701 1.89657 11.4703 0.764191 8.99608 0.764191ZM3.38513 8.18371C3.38513 7.01436 3.81661 5.51067 4.74537 4.31326C5.65583 3.13946 7.03648 2.26419 8.99608 2.26419C10.9552 2.26419 12.3358 3.13943 13.2465 4.3133C14.1754 5.51074 14.607 7.01444 14.607 8.18371C14.607 8.57682 14.5955 8.8608 14.5857 9.09986C14.5836 9.1515 14.5816 9.20105 14.5798 9.24915C14.5698 9.51499 14.5646 9.76817 14.6101 10.0498C14.6946 10.5728 14.9515 11.139 15.4655 12.2716L15.4755 12.2937C15.7241 12.9463 15.6442 13.433 15.4057 13.8352C15.1426 14.2791 14.6384 14.6961 13.9191 15.0549C12.4805 15.7726 10.4751 16.1118 8.99608 16.1118C7.51653 16.1118 5.51094 15.7725 4.07231 15.0549C3.3531 14.6961 2.84894 14.2791 2.58593 13.8353C2.3476 13.4331 2.26777 12.9465 2.51665 12.2938L2.52667 12.2717L2.52679 12.2714C3.04069 11.1389 3.29758 10.5728 3.38207 10.0498C3.42757 9.76817 3.42233 9.51499 3.41239 9.24915C3.41074 9.20507 3.4089 9.15976 3.40699 9.11274L3.40646 9.09985C3.39671 8.86079 3.38513 8.57681 3.38513 8.18371ZM7.24527 19.0126C6.96933 18.7036 6.49521 18.6769 6.18629 18.9528C5.87737 19.2288 5.85063 19.7029 6.12657 20.0118C7.73433 21.8118 10.2752 21.7879 11.8647 20.0124C12.141 19.7038 12.1148 19.2297 11.8062 18.9534C11.4976 18.6771 11.0234 18.7033 10.7471 19.0119C9.74803 20.1279 8.25083 20.1383 7.24527 19.0126Z" fill="#A9A9A9"/>
</svg>
