<?xml version="1.0"?>
<svg width="16" height="22" xmlns="http://www.w3.org/2000/svg" xmlns:svg="http://www.w3.org/2000/svg">
 <g class="layer">
  <title>Layer 1</title>
  <path clip-rule="evenodd" d="m7.84,0.65c-2.84,0 -5.14,2.3 -5.14,5.14l0,0l0.75,0l-0.75,-0.01l0,0.01c-0.01,2.82 2.28,5.12 5.1,5.13l0.01,0l0.03,0c2.83,0 5.13,-2.3 5.13,-5.13c0,-2.84 -2.3,-5.14 -5.13,-5.14zm-3.64,5.14c0,-2.01 1.63,-3.64 3.64,-3.64c2.01,0 3.63,1.63 3.63,3.64c0,2.01 -1.63,3.63 -3.63,3.63l-0.03,0c-2,0 -3.62,-1.63 -3.61,-3.63l0,0zm-2.45,12c0,-0.8 0.56,-1.71 1.69,-2.45c1.12,-0.73 2.68,-1.23 4.4,-1.23c1.72,0 3.28,0.49 4.4,1.22c1.14,0.74 1.7,1.64 1.7,2.44c0,0.38 -0.12,0.67 -0.35,0.91c-0.24,0.26 -0.62,0.49 -1.18,0.69c-1.12,0.39 -2.73,0.54 -4.57,0.54c-1.82,0 -3.43,-0.14 -4.56,-0.53c-0.56,-0.19 -0.94,-0.43 -1.18,-0.69c-0.23,-0.24 -0.35,-0.52 -0.35,-0.9zm6.09,-5.18c-1.99,0 -3.84,0.57 -5.22,1.47c-1.36,0.9 -2.37,2.2 -2.37,3.71c0,0.76 0.27,1.41 0.75,1.93c0.47,0.5 1.1,0.84 1.79,1.08c1.38,0.47 3.19,0.61 5.05,0.61c1.88,0 3.69,-0.15 5.07,-0.63c0.69,-0.24 1.32,-0.58 1.78,-1.08c0.48,-0.52 0.75,-1.17 0.75,-1.93c0,-1.51 -1.02,-2.81 -2.38,-3.7c-1.38,-0.9 -3.23,-1.46 -5.22,-1.46z" fill="#e23e3e" fill-rule="evenodd" id="svg_1"/>
 </g>
</svg>