<?xml version="1.0"?>
<svg width="22" height="22" xmlns="http://www.w3.org/2000/svg" xmlns:svg="http://www.w3.org/2000/svg">
 <defs>
  <clipPath id="clip0_582_815">
   <rect fill="white" height="21.5" id="svg_1" transform="translate(0.650391 0.25)" width="20.67"/>
  </clipPath>
 </defs>
 <g class="layer">
  <title>Layer 1</title>
  <g clip-path="url(#clip0_582_815)" id="svg_2">
   <path clip-rule="evenodd" d="m4.7,5.98c0.33,-0.29 0.7,-0.62 1.11,-1c0.27,-0.22 0.54,-0.45 0.82,-0.69l0,0c0.55,-0.46 1.13,-0.96 1.76,-1.41c0.97,-0.7 1.85,-1.13 2.57,-1.13c0.72,0 1.61,0.43 2.59,1.13c0.67,0.47 1.28,0.98 1.85,1.47c0.27,0.22 0.52,0.43 0.76,0.63c0.42,0.38 0.79,0.71 1.12,1l0.13,0.12l0,0c0.28,0.24 0.52,0.46 0.74,0.66c0.51,0.47 0.83,0.82 1.05,1.21c0.45,0.79 0.62,1.9 0.62,4.74c0,2.06 -0.12,3.54 -0.4,4.61c-0.27,1.05 -0.68,1.65 -1.22,2.03c-0.56,0.41 -1.36,0.65 -2.57,0.77c-1.21,0.13 -2.72,0.13 -4.64,0.13c-1.92,0 -3.43,0 -4.64,-0.13c-1.21,-0.12 -2.02,-0.36 -2.58,-0.77c-0.54,-0.38 -0.95,-0.98 -1.22,-2.03c-0.28,-1.07 -0.4,-2.55 -0.4,-4.61c0,-2.84 0.17,-3.95 0.62,-4.74c0.23,-0.39 0.55,-0.74 1.05,-1.21c0.22,-0.2 0.46,-0.42 0.74,-0.66l0.14,-0.12zm6.26,-5.73c-1.23,0 -2.44,0.69 -3.44,1.41c-0.68,0.49 -1.37,1.07 -1.94,1.55c-0.27,0.23 -0.52,0.45 -0.73,0.62c-0.01,0.01 -0.03,0.02 -0.04,0.03c-0.41,0.38 -0.77,0.7 -1.1,0.99l-0.14,0.12l0,0c-0.28,0.25 -0.53,0.47 -0.77,0.69c-0.54,0.5 -0.99,0.97 -1.33,1.57c-0.68,1.18 -0.82,2.7 -0.82,5.48c0,2.09 0.12,3.72 0.45,4.98c0.33,1.28 0.89,2.23 1.8,2.88c0.88,0.64 1.99,0.91 3.29,1.05c1.3,0.13 2.88,0.13 4.76,0.13l0.07,0c1.88,0 3.46,0 4.76,-0.13c1.3,-0.14 2.42,-0.41 3.3,-1.05c0.9,-0.65 1.46,-1.6 1.79,-2.88c0.33,-1.26 0.45,-2.89 0.45,-4.98c0,-2.78 -0.14,-4.3 -0.82,-5.48c-0.34,-0.6 -0.79,-1.07 -1.33,-1.57c-0.23,-0.22 -0.49,-0.44 -0.77,-0.69l-0.13,-0.12c-0.33,-0.29 -0.7,-0.61 -1.11,-0.99c-0.01,-0.01 -0.02,-0.02 -0.04,-0.03c-0.2,-0.17 -0.43,-0.36 -0.68,-0.58c-0.6,-0.5 -1.3,-1.09 -2.02,-1.6c-1.01,-0.71 -2.24,-1.4 -3.46,-1.4zm-2.88,14.14c-0.42,0 -0.75,0.33 -0.75,0.75c0,0.41 0.33,0.75 0.75,0.75l5.81,0c0.42,0 0.75,-0.34 0.75,-0.75c0,-0.42 -0.33,-0.75 -0.75,-0.75l-5.81,0z" fill="#e23e3e" fill-rule="evenodd" id="svg_3"/>
  </g>
 </g>
</svg>