<?xml version="1.0"?>
<svg width="18" height="22" xmlns="http://www.w3.org/2000/svg" xmlns:svg="http://www.w3.org/2000/svg">
 <defs>
  <clipPath id="clip0_582_804">
   <rect fill="white" height="20.5" id="svg_1" transform="translate(0.749878 0.75)" width="16.44"/>
  </clipPath>
 </defs>
 <g class="layer">
  <title>Layer 1</title>
  <path clip-rule="evenodd" d="m8.97,0.75c-1.6,0 -2.93,0.06 -4.01,0.28c-1.09,0.22 -2,0.63 -2.67,1.37c-0.67,0.73 -1.04,1.71 -1.26,2.92c-0.21,1.21 -0.28,2.73 -0.28,4.61c0,0.73 0,1.41 0,2.05l0,0c0,3.02 -0.01,5.1 0.13,6.46c0.08,0.81 0.22,1.49 0.53,1.99c0.17,0.26 0.39,0.48 0.67,0.63c0.28,0.14 0.58,0.19 0.86,0.19c0.65,0 1.28,-0.36 1.79,-0.71c0.49,-0.34 1.02,-0.79 1.51,-1.21l0,0l0.12,-0.1c0.54,-0.47 1.05,-0.9 1.53,-1.21c0.5,-0.33 0.85,-0.45 1.08,-0.45c0.23,0 0.58,0.12 1.08,0.45c0.48,0.31 0.99,0.74 1.53,1.21l0.12,0.1l0,0c0.5,0.42 1.02,0.87 1.51,1.21c0.51,0.35 1.14,0.71 1.79,0.71c0.28,0 0.58,-0.05 0.86,-0.19c0.28,-0.15 0.51,-0.37 0.67,-0.63c0.31,-0.5 0.45,-1.18 0.53,-1.99c0.14,-1.36 0.13,-3.44 0.13,-6.46l0,0c0,-0.64 0,-1.32 0,-2.05c0,-1.88 -0.07,-3.4 -0.28,-4.61c-0.22,-1.21 -0.59,-2.19 -1.26,-2.92c-0.67,-0.74 -1.58,-1.15 -2.67,-1.37c-1.08,-0.22 -2.41,-0.28 -4.01,-0.28zm-6.72,9.18c0,-1.87 0.07,-3.28 0.26,-4.35c0.19,-1.07 0.49,-1.73 0.89,-2.17c0.39,-0.43 0.95,-0.73 1.86,-0.91c0.92,-0.19 2.12,-0.25 3.71,-0.25c1.59,0 2.79,0.06 3.71,0.25c0.91,0.18 1.47,0.48 1.86,0.91c0.4,0.44 0.7,1.1 0.89,2.17c0.19,1.07 0.26,2.48 0.26,4.35c0,0.74 0,1.44 0,2.08c0,3.03 0.01,5 -0.12,6.28c-0.08,0.78 -0.2,1.16 -0.31,1.34c-0.04,0.07 -0.07,0.09 -0.08,0.09c-0.02,0.01 -0.07,0.03 -0.18,0.03c-0.15,0 -0.45,-0.1 -0.93,-0.44c-0.43,-0.3 -0.9,-0.7 -1.41,-1.14l0,0l-0.1,-0.08c-0.54,-0.46 -1.12,-0.95 -1.69,-1.33c-0.55,-0.36 -1.21,-0.69 -1.9,-0.69c-0.69,0 -1.35,0.33 -1.9,0.69c-0.57,0.38 -1.15,0.87 -1.69,1.33l-0.1,0.08l0,0.01c-0.51,0.43 -0.98,0.83 -1.41,1.13c-0.48,0.34 -0.78,0.44 -0.93,0.44c-0.11,0 -0.16,-0.02 -0.18,-0.03c-0.01,0 -0.04,-0.02 -0.08,-0.09c-0.11,-0.18 -0.23,-0.56 -0.31,-1.34c-0.13,-1.28 -0.12,-3.25 -0.12,-6.28l0,0c0,-0.64 0,-1.34 0,-2.08zm3.29,-2.46c-0.41,0 -0.75,0.33 -0.75,0.75c0,0.41 0.34,0.75 0.75,0.75l6.86,0c0.41,0 0.75,-0.34 0.75,-0.75c0,-0.42 -0.34,-0.75 -0.75,-0.75l-6.86,0z" fill="#e23e3e" fill-rule="evenodd" id="svg_4"/>
 </g>
</svg>