<?xml version="1.0"?>
<svg width="18" height="22" xmlns="http://www.w3.org/2000/svg" xmlns:svg="http://www.w3.org/2000/svg">
 <g class="layer">
  <title>Layer 1</title>
  <path clip-rule="evenodd" d="m9,0.76c-2.48,0 -4.28,1.14 -5.44,2.63c-1.14,1.48 -1.67,3.31 -1.67,4.79c0,0.43 0.01,0.75 0.02,0.99l0,0c0,0.05 0,0.09 0,0.14c0.01,0.25 0.01,0.38 -0.01,0.5c-0.04,0.28 -0.19,0.62 -0.76,1.88c0,0.02 -0.01,0.03 -0.01,0.04c-0.42,1.06 -0.33,2.04 0.17,2.87c0.46,0.79 1.25,1.37 2.1,1.8c1.71,0.85 3.96,1.21 5.6,1.21c1.64,0 3.89,-0.36 5.59,-1.21c0.85,-0.43 1.64,-1.01 2.11,-1.8c0.49,-0.83 0.58,-1.81 0.17,-2.87c-0.01,-0.01 -0.01,-0.02 -0.02,-0.04c-0.57,-1.26 -0.71,-1.6 -0.76,-1.88c-0.02,-0.12 -0.02,-0.25 -0.01,-0.5c0,-0.05 0,-0.09 0,-0.14c0.01,-0.24 0.03,-0.56 0.03,-0.99c0,-1.48 -0.54,-3.31 -1.68,-4.79c-1.16,-1.49 -2.96,-2.63 -5.43,-2.63zm-5.61,7.42c0,-1.17 0.43,-2.67 1.36,-3.87c0.91,-1.17 2.29,-2.05 4.25,-2.05c1.96,0 3.34,0.88 4.25,2.05c0.93,1.2 1.36,2.7 1.36,3.87c0,0.4 -0.01,0.68 -0.02,0.92c-0.01,0.05 -0.01,0.1 -0.01,0.15c-0.01,0.26 -0.02,0.52 0.03,0.8c0.08,0.52 0.34,1.09 0.86,2.22l0.01,0.02c0.24,0.66 0.16,1.14 -0.07,1.55c-0.27,0.44 -0.77,0.86 -1.49,1.21c-1.44,0.72 -3.44,1.06 -4.92,1.06c-1.48,0 -3.49,-0.34 -4.93,-1.06c-0.72,-0.35 -1.22,-0.77 -1.48,-1.21c-0.24,-0.41 -0.32,-0.89 -0.07,-1.55l0.01,-0.02l0,0c0.51,-1.13 0.77,-1.7 0.85,-2.22c0.05,-0.28 0.04,-0.54 0.03,-0.8c0,-0.04 0,-0.09 0,-0.14l0,-0.01c-0.01,-0.24 -0.02,-0.52 -0.02,-0.92zm3.86,10.83c-0.28,-0.31 -0.75,-0.33 -1.06,-0.06c-0.31,0.28 -0.34,0.75 -0.06,1.06c1.6,1.8 4.15,1.78 5.73,0c0.28,-0.31 0.25,-0.78 -0.05,-1.06c-0.31,-0.27 -0.79,-0.25 -1.06,0.06c-1,1.12 -2.5,1.13 -3.5,0z" fill="#e23e3e" fill-rule="evenodd" id="svg_1"/>
 </g>
</svg>